<?xml version="1.0" encoding="UTF-8" standalone="no"?>
<svg
   xmlns:dc="http://purl.org/dc/elements/1.1/"
   xmlns:cc="http://creativecommons.org/ns#"
   xmlns:rdf="http://www.w3.org/1999/02/22-rdf-syntax-ns#"
   xmlns:svg="http://www.w3.org/2000/svg"
   xmlns="http://www.w3.org/2000/svg"
   xmlns:sodipodi="http://sodipodi.sourceforge.net/DTD/sodipodi-0.dtd"
   xmlns:inkscape="http://www.inkscape.org/namespaces/inkscape"
   width="60mm"
   height="38.18531mm"
   viewBox="0 0 60 38.18531"
   version="1.1"
   id="svg8"
   inkscape:version="1.0 (4035a4fb49, 2020-05-01)"
   sodipodi:docname="19_tori_ingrandimento.svg">
  <defs
     id="defs2">
    <marker
       inkscape:stockid="Arrow1Mend"
       orient="auto"
       refY="0"
       refX="0"
       id="marker1006"
       style="overflow:visible"
       inkscape:isstock="true">
      <path
         id="path1004"
         d="M 0,0 5,-5 -12.5,0 5,5 Z"
         style="fill:#000000;fill-opacity:1;fill-rule:evenodd;stroke:#000000;stroke-width:1pt;stroke-opacity:1"
         transform="matrix(-0.4,0,0,-0.4,-4,0)" />
    </marker>
    <inkscape:path-effect
       effect="simplify"
       id="path-effect2608"
       is_visible="true"
       lpeversion="1"
       steps="1"
       threshold="0.00243902"
       smooth_angles="360"
       helper_size="0"
       simplify_individual_paths="false"
       simplify_just_coalesce="false" />
    <marker
       inkscape:stockid="Arrow1Mstart"
       orient="auto"
       refY="0"
       refX="0"
       id="marker2467"
       style="overflow:visible"
       inkscape:isstock="true">
      <path
         id="path2465"
         d="M 0,0 5,-5 -12.5,0 5,5 Z"
         style="fill:#000000;fill-opacity:1;fill-rule:evenodd;stroke:#000000;stroke-width:1pt;stroke-opacity:1"
         transform="matrix(0.4,0,0,0.4,4,0)" />
    </marker>
    <inkscape:path-effect
       simplify_just_coalesce="false"
       simplify_individual_paths="false"
       helper_size="0"
       smooth_angles="360"
       threshold="0.00243902"
       steps="1"
       lpeversion="1"
       is_visible="true"
       id="path-effect2409"
       effect="simplify" />
    <marker
       inkscape:isstock="true"
       style="overflow:visible"
       id="marker2256"
       refX="0"
       refY="0"
       orient="auto"
       inkscape:stockid="Arrow1Mstart"
       inkscape:collect="always">
      <path
         transform="matrix(0.4,0,0,0.4,4,0)"
         style="fill:#000000;fill-opacity:1;fill-rule:evenodd;stroke:#000000;stroke-width:1pt;stroke-opacity:1"
         d="M 0,0 5,-5 -12.5,0 5,5 Z"
         id="path2254" />
    </marker>
    <marker
       inkscape:stockid="Arrow1Mstart"
       orient="auto"
       refY="0"
       refX="0"
       id="Arrow1Mstart"
       style="overflow:visible"
       inkscape:isstock="true"
       inkscape:collect="always">
      <path
         id="path1494"
         d="M 0,0 5,-5 -12.5,0 5,5 Z"
         style="fill:#000000;fill-opacity:1;fill-rule:evenodd;stroke:#000000;stroke-width:1pt;stroke-opacity:1"
         transform="matrix(0.4,0,0,0.4,4,0)" />
    </marker>
    <inkscape:path-effect
       simplify_just_coalesce="false"
       simplify_individual_paths="false"
       helper_size="0"
       smooth_angles="360"
       threshold="0.00243902"
       steps="1"
       lpeversion="1"
       is_visible="true"
       id="path-effect2040"
       effect="simplify" />
    <inkscape:path-effect
       simplify_just_coalesce="false"
       simplify_individual_paths="false"
       helper_size="0"
       smooth_angles="360"
       threshold="0.00243902"
       steps="1"
       lpeversion="1"
       is_visible="true"
       id="path-effect2038"
       effect="simplify" />
    <marker
       inkscape:collect="always"
       inkscape:isstock="true"
       style="overflow:visible"
       id="marker1910"
       refX="0"
       refY="0"
       orient="auto"
       inkscape:stockid="Arrow1Mend">
      <path
         transform="matrix(-0.4,0,0,-0.4,-4,0)"
         style="fill:#000000;fill-opacity:1;fill-rule:evenodd;stroke:#000000;stroke-width:1pt;stroke-opacity:1"
         d="M 0,0 5,-5 -12.5,0 5,5 Z"
         id="path1908" />
    </marker>
    <marker
       inkscape:stockid="Arrow1Mend"
       orient="auto"
       refY="0"
       refX="0"
       id="Arrow1Mend"
       style="overflow:visible"
       inkscape:isstock="true"
       inkscape:collect="always">
      <path
         id="path1497"
         d="M 0,0 5,-5 -12.5,0 5,5 Z"
         style="fill:#000000;fill-opacity:1;fill-rule:evenodd;stroke:#000000;stroke-width:1pt;stroke-opacity:1"
         transform="matrix(-0.4,0,0,-0.4,-4,0)" />
    </marker>
    <marker
       inkscape:isstock="true"
       style="overflow:visible"
       id="marker1808"
       refX="0"
       refY="0"
       orient="auto"
       inkscape:stockid="Arrow1Send">
      <path
         transform="matrix(-0.2,0,0,-0.2,-1.2,0)"
         style="fill:#000000;fill-opacity:1;fill-rule:evenodd;stroke:#000000;stroke-width:1pt;stroke-opacity:1"
         d="M 0,0 5,-5 -12.5,0 5,5 Z"
         id="path1806" />
    </marker>
    <inkscape:path-effect
       effect="simplify"
       id="path-effect1804"
       is_visible="true"
       lpeversion="1"
       steps="1"
       threshold="0.00243902"
       smooth_angles="360"
       helper_size="0"
       simplify_individual_paths="false"
       simplify_just_coalesce="false" />
    <marker
       inkscape:stockid="Arrow1Lend"
       orient="auto"
       refY="0"
       refX="0"
       id="Arrow1Lend"
       style="overflow:visible"
       inkscape:isstock="true">
      <path
         id="path1491"
         d="M 0,0 5,-5 -12.5,0 5,5 Z"
         style="fill:#000000;fill-opacity:1;fill-rule:evenodd;stroke:#000000;stroke-width:1pt;stroke-opacity:1"
         transform="matrix(-0.8,0,0,-0.8,-10,0)" />
    </marker>
    <inkscape:path-effect
       effect="simplify"
       id="path-effect1486"
       is_visible="true"
       lpeversion="1"
       steps="1"
       threshold="0.00243902"
       smooth_angles="360"
       helper_size="0"
       simplify_individual_paths="false"
       simplify_just_coalesce="false" />
    <inkscape:path-effect
       effect="simplify"
       id="path-effect1205"
       is_visible="true"
       lpeversion="1"
       steps="1"
       threshold="0.00243902"
       smooth_angles="360"
       helper_size="0"
       simplify_individual_paths="false"
       simplify_just_coalesce="false" />
    <inkscape:path-effect
       effect="simplify"
       id="path-effect1213"
       is_visible="true"
       lpeversion="1"
       steps="1"
       threshold="0.00243902"
       smooth_angles="360"
       helper_size="0"
       simplify_individual_paths="false"
       simplify_just_coalesce="false" />
    <mask
       maskUnits="userSpaceOnUse"
       id="mask1330">
      <rect
         style="fill:#ffffff;fill-opacity:1;stroke:#c0ffff;stroke-width:0.598503;stroke-linejoin:round;stroke-opacity:1"
         id="rect1332"
         width="88.332573"
         height="38.598568"
         x="62.407433"
         y="103.05428" />
    </mask>
    <mask
       maskUnits="userSpaceOnUse"
       id="mask1334">
      <rect
         style="fill:#ffffff;fill-opacity:1;stroke:#c0ffff;stroke-width:0.598503;stroke-linejoin:round;stroke-opacity:1"
         id="rect1336"
         width="88.332573"
         height="38.598568"
         x="62.407433"
         y="103.05428" />
    </mask>
    <mask
       maskUnits="userSpaceOnUse"
       id="mask1338">
      <rect
         style="fill:#ffffff;fill-opacity:1;stroke:#c0ffff;stroke-width:0.598503;stroke-linejoin:round;stroke-opacity:1"
         id="rect1340"
         width="88.332573"
         height="38.598568"
         x="62.407433"
         y="103.05428" />
    </mask>
    <mask
       maskUnits="userSpaceOnUse"
       id="mask1342">
      <rect
         style="fill:#ffffff;fill-opacity:1;stroke:#c0ffff;stroke-width:0.598503;stroke-linejoin:round;stroke-opacity:1"
         id="rect1344"
         width="88.332573"
         height="38.598568"
         x="62.407433"
         y="103.05428" />
    </mask>
    <mask
       maskUnits="userSpaceOnUse"
       id="mask1346">
      <rect
         style="fill:#ffffff;fill-opacity:1;stroke:#c0ffff;stroke-width:1.97524;stroke-linejoin:round;stroke-opacity:1"
         id="rect1348"
         width="291.52328"
         height="127.38654"
         x="-41.367039"
         y="-7.0150352" />
    </mask>
    <mask
       maskUnits="userSpaceOnUse"
       id="mask1350">
      <rect
         style="fill:#ffffff;fill-opacity:1;stroke:#c0ffff;stroke-width:0.598503;stroke-linejoin:round;stroke-opacity:1"
         id="rect1352"
         width="88.332573"
         height="38.598568"
         x="62.407433"
         y="103.05428" />
    </mask>
    <mask
       maskUnits="userSpaceOnUse"
       id="mask1354">
      <rect
         style="fill:#ffffff;fill-opacity:1;stroke:#c0ffff;stroke-width:1.97524;stroke-linejoin:round;stroke-opacity:1"
         id="rect1356"
         width="291.52328"
         height="127.38654"
         x="-41.367039"
         y="-7.0150352" />
    </mask>
    <mask
       maskUnits="userSpaceOnUse"
       id="mask1358">
      <rect
         style="fill:#ffffff;fill-opacity:1;stroke:#c0ffff;stroke-width:0.598503;stroke-linejoin:round;stroke-opacity:1"
         id="rect1360"
         width="88.332573"
         height="38.598568"
         x="62.407433"
         y="103.05428" />
    </mask>
    <mask
       maskUnits="userSpaceOnUse"
       id="mask1362">
      <rect
         style="fill:#ffffff;fill-opacity:1;stroke:#c0ffff;stroke-width:1.97524;stroke-linejoin:round;stroke-opacity:1"
         id="rect1364"
         width="291.52328"
         height="127.38654"
         x="-41.367039"
         y="-7.0150352" />
    </mask>
    <mask
       maskUnits="userSpaceOnUse"
       id="mask1366">
      <rect
         style="fill:#ffffff;fill-opacity:1;stroke:#c0ffff;stroke-width:0.598503;stroke-linejoin:round;stroke-opacity:1"
         id="rect1368"
         width="88.332573"
         height="38.598568"
         x="62.407433"
         y="103.05428" />
    </mask>
    <mask
       maskUnits="userSpaceOnUse"
       id="mask1370">
      <rect
         style="fill:#ffffff;fill-opacity:1;stroke:#c0ffff;stroke-width:1.97524;stroke-linejoin:round;stroke-opacity:1"
         id="rect1372"
         width="291.52328"
         height="127.38654"
         x="-41.367039"
         y="-7.0150352"
         transform="scale(-1)" />
    </mask>
    <mask
       maskUnits="userSpaceOnUse"
       id="mask1374">
      <rect
         style="fill:#ffffff;fill-opacity:1;stroke:#c0ffff;stroke-width:0.598503;stroke-linejoin:round;stroke-opacity:1"
         id="rect1376"
         width="88.332573"
         height="38.598568"
         x="62.407433"
         y="103.05428" />
    </mask>
    <mask
       maskUnits="userSpaceOnUse"
       id="mask1378">
      <rect
         style="fill:#ffffff;fill-opacity:1;stroke:#c0ffff;stroke-width:1.97524;stroke-linejoin:round;stroke-opacity:1"
         id="rect1380"
         width="291.52328"
         height="127.38654"
         x="-41.367039"
         y="-7.0150352" />
    </mask>
    <mask
       maskUnits="userSpaceOnUse"
       id="mask1382">
      <rect
         style="fill:#ffffff;fill-opacity:1;stroke:#c0ffff;stroke-width:0.598503;stroke-linejoin:round;stroke-opacity:1"
         id="rect1384"
         width="88.332573"
         height="38.598568"
         x="62.407433"
         y="103.05428" />
    </mask>
    <mask
       maskUnits="userSpaceOnUse"
       id="mask1452">
      <rect
         style="fill:#ffffff;fill-opacity:1;stroke:#c0ffff;stroke-width:0.378698;stroke-linejoin:round;stroke-opacity:1"
         id="rect1454"
         width="41.464573"
         height="41.531509"
         x="71.642799"
         y="101.64368"
         d="m 71.642799,101.64368 c 13.821525,0 41.464571,-13.821522 41.464571,0 0,13.84383 13.84384,41.53151 0,41.53151 -13.821522,0 -41.464571,13.82152 -41.464571,0 0,-13.84384 0,-27.68768 0,-41.53151 z" />
    </mask>
    <mask
       maskUnits="userSpaceOnUse"
       id="mask1456">
      <rect
         style="fill:#ffffff;fill-opacity:1;stroke:#c0ffff;stroke-width:0.378698;stroke-linejoin:round;stroke-opacity:1"
         id="rect1458"
         width="41.464573"
         height="41.531509"
         x="71.642799"
         y="101.64368"
         d="m 71.642799,101.64368 c 13.821525,0 41.464571,-13.821522 41.464571,0 0,13.84383 13.84384,41.53151 0,41.53151 -13.821522,0 -41.464571,13.82152 -41.464571,0 0,-13.84384 0,-27.68768 0,-41.53151 z" />
    </mask>
    <mask
       maskUnits="userSpaceOnUse"
       id="mask1460">
      <rect
         style="fill:#ffffff;fill-opacity:1;stroke:#c0ffff;stroke-width:1.24981;stroke-linejoin:round;stroke-opacity:1"
         id="rect1462"
         width="136.84518"
         height="137.0661"
         x="-10.887624"
         y="-11.670444" />
    </mask>
    <mask
       maskUnits="userSpaceOnUse"
       id="mask1464">
      <rect
         style="fill:#ffffff;fill-opacity:1;stroke:#c0ffff;stroke-width:0.378698;stroke-linejoin:round;stroke-opacity:1"
         id="rect1466"
         width="41.464573"
         height="41.531509"
         x="71.642799"
         y="101.64368" />
    </mask>
    <mask
       maskUnits="userSpaceOnUse"
       id="mask1468">
      <rect
         style="fill:#ffffff;fill-opacity:1;stroke:#c0ffff;stroke-width:1.24981;stroke-linejoin:round;stroke-opacity:1"
         id="rect1470"
         width="136.84518"
         height="137.0661"
         x="-10.887624"
         y="-11.670444" />
    </mask>
    <mask
       maskUnits="userSpaceOnUse"
       id="mask1472">
      <rect
         style="fill:#ffffff;fill-opacity:1;stroke:#c0ffff;stroke-width:0.378698;stroke-linejoin:round;stroke-opacity:1"
         id="rect1474"
         width="41.464573"
         height="41.531509"
         x="71.642799"
         y="101.64368" />
    </mask>
    <mask
       maskUnits="userSpaceOnUse"
       id="mask1476">
      <rect
         style="fill:#ffffff;fill-opacity:1;stroke:#c0ffff;stroke-width:1.24981;stroke-linejoin:round;stroke-opacity:1"
         id="rect1478"
         width="136.84518"
         height="137.0661"
         x="-10.887624"
         y="-11.670444" />
    </mask>
    <mask
       maskUnits="userSpaceOnUse"
       id="mask1480">
      <rect
         style="fill:#ffffff;fill-opacity:1;stroke:#c0ffff;stroke-width:0.378698;stroke-linejoin:round;stroke-opacity:1"
         id="rect1482"
         width="41.464573"
         height="41.531509"
         x="71.642799"
         y="101.64368" />
    </mask>
    <marker
       inkscape:stockid="Arrow1Mend"
       orient="auto"
       refY="0"
       refX="0"
       id="marker1910-2"
       style="overflow:visible"
       inkscape:isstock="true">
      <path
         id="path1908-1"
         d="M 0,0 5,-5 -12.5,0 5,5 Z"
         style="fill:#000000;fill-opacity:1;fill-rule:evenodd;stroke:#000000;stroke-width:1pt;stroke-opacity:1"
         transform="matrix(-0.4,0,0,-0.4,-4,0)" />
    </marker>
    <marker
       inkscape:isstock="true"
       style="overflow:visible"
       id="marker2467-7"
       refX="0"
       refY="0"
       orient="auto"
       inkscape:stockid="Arrow1Mstart">
      <path
         transform="matrix(0.4,0,0,0.4,4,0)"
         style="fill:#000000;fill-opacity:1;fill-rule:evenodd;stroke:#000000;stroke-width:1pt;stroke-opacity:1"
         d="M 0,0 5,-5 -12.5,0 5,5 Z"
         id="path2465-1" />
    </marker>
    <marker
       inkscape:isstock="true"
       style="overflow:visible"
       id="marker1006-8"
       refX="0"
       refY="0"
       orient="auto"
       inkscape:stockid="Arrow1Mend">
      <path
         transform="matrix(-0.4,0,0,-0.4,-4,0)"
         style="fill:#000000;fill-opacity:1;fill-rule:evenodd;stroke:#000000;stroke-width:1pt;stroke-opacity:1"
         d="M 0,0 5,-5 -12.5,0 5,5 Z"
         id="path1004-3" />
    </marker>
    <marker
       inkscape:stockid="Arrow1Mend"
       orient="auto"
       refY="0"
       refX="0"
       id="marker1006-8-0"
       style="overflow:visible"
       inkscape:isstock="true">
      <path
         id="path1004-3-7"
         d="M 0,0 5,-5 -12.5,0 5,5 Z"
         style="fill:#000000;fill-opacity:1;fill-rule:evenodd;stroke:#000000;stroke-width:1pt;stroke-opacity:1"
         transform="matrix(-0.4,0,0,-0.4,-4,0)" />
    </marker>
    <marker
       inkscape:isstock="true"
       style="overflow:visible"
       id="marker1006-8-0-6"
       refX="0"
       refY="0"
       orient="auto"
       inkscape:stockid="Arrow1Mend">
      <path
         transform="matrix(-0.4,0,0,-0.4,-4,0)"
         style="fill:#000000;fill-opacity:1;fill-rule:evenodd;stroke:#000000;stroke-width:1pt;stroke-opacity:1"
         d="M 0,0 5,-5 -12.5,0 5,5 Z"
         id="path1004-3-7-3" />
    </marker>
    <marker
       inkscape:isstock="true"
       style="overflow:visible"
       id="marker1006-8-0-9"
       refX="0"
       refY="0"
       orient="auto"
       inkscape:stockid="Arrow1Mend">
      <path
         transform="matrix(-0.4,0,0,-0.4,-4,0)"
         style="fill:#000000;fill-opacity:1;fill-rule:evenodd;stroke:#000000;stroke-width:1pt;stroke-opacity:1"
         d="M 0,0 5,-5 -12.5,0 5,5 Z"
         id="path1004-3-7-2" />
    </marker>
    <marker
       inkscape:stockid="Arrow1Mend"
       orient="auto"
       refY="0"
       refX="0"
       id="marker1006-8-0-9-8"
       style="overflow:visible"
       inkscape:isstock="true">
      <path
         id="path1004-3-7-2-5"
         d="M 0,0 5,-5 -12.5,0 5,5 Z"
         style="fill:#000000;fill-opacity:1;fill-rule:evenodd;stroke:#000000;stroke-width:1pt;stroke-opacity:1"
         transform="matrix(-0.4,0,0,-0.4,-4,0)" />
    </marker>
    <marker
       inkscape:isstock="true"
       style="overflow:visible"
       id="marker1006-8-0-9-8-2"
       refX="0"
       refY="0"
       orient="auto"
       inkscape:stockid="Arrow1Mend">
      <path
         transform="matrix(-0.4,0,0,-0.4,-4,0)"
         style="fill:#000000;fill-opacity:1;fill-rule:evenodd;stroke:#000000;stroke-width:1pt;stroke-opacity:1"
         d="M 0,0 5,-5 -12.5,0 5,5 Z"
         id="path1004-3-7-2-5-0" />
    </marker>
    <marker
       inkscape:stockid="Arrow1Mend"
       orient="auto"
       refY="0"
       refX="0"
       id="marker1006-8-0-9-9"
       style="overflow:visible"
       inkscape:isstock="true">
      <path
         id="path1004-3-7-2-2"
         d="M 0,0 5,-5 -12.5,0 5,5 Z"
         style="fill:#000000;fill-opacity:1;fill-rule:evenodd;stroke:#000000;stroke-width:1pt;stroke-opacity:1"
         transform="matrix(-0.4,0,0,-0.4,-4,0)" />
    </marker>
  </defs>
  <sodipodi:namedview
     id="base"
     pagecolor="#ffffff"
     bordercolor="#666666"
     borderopacity="1.0"
     inkscape:pageopacity="0.0"
     inkscape:pageshadow="2"
     inkscape:zoom="3.959798"
     inkscape:cx="191.02633"
     inkscape:cy="81.610351"
     inkscape:document-units="mm"
     inkscape:current-layer="layer1"
     inkscape:document-rotation="0"
     showgrid="false"
     inkscape:window-width="1920"
     inkscape:window-height="1046"
     inkscape:window-x="-11"
     inkscape:window-y="-11"
     inkscape:window-maximized="1" />
  <metadata
     id="metadata5">
    <rdf:RDF>
      <cc:Work
         rdf:about="">
        <dc:format>image/svg+xml</dc:format>
        <dc:type
           rdf:resource="http://purl.org/dc/dcmitype/StillImage" />
        <dc:title></dc:title>
      </cc:Work>
    </rdf:RDF>
  </metadata>
  <g
     inkscape:label="Livello 1"
     inkscape:groupmode="layer"
     id="layer1"
     transform="translate(-74.941128,-105.17923)">
    <path
       id="path22"
       style="fill:#ffffff;fill-opacity:0.78;fill-rule:nonzero;stroke:none;stroke-width:0.303003"
       d="m 143.28453,139.85134 c 0,18.59683 -15.07442,33.67126 -33.67126,33.67126 -18.595631,0 -33.671266,-15.07443 -33.671266,-33.67126 0,-18.59563 15.075635,-33.67127 33.671266,-33.67127 18.59684,0 33.67126,15.07564 33.67126,33.67127"
       mask="url(#mask1480)"
       transform="translate(10.583334)" />
    <g
       id="g24"
       transform="matrix(0.30300351,0,0,0.30300351,85.525129,105.17986)"
       mask="url(#mask1476)"
       style="stroke-width:1.33002;stroke-miterlimit:4;stroke-dasharray:none">
      <path
         id="path26"
         style="fill:none;stroke:#000000;stroke-width:1.33002;stroke-linecap:butt;stroke-linejoin:round;stroke-miterlimit:4;stroke-dasharray:none;stroke-opacity:1"
         d="m 225.551,114.426 c 0,61.375 -49.75,111.125 -111.125,111.125 -61.371,0 -111.125,-49.75 -111.125,-111.125 0,-61.371 49.754,-111.125 111.125,-111.125 61.375,0 111.125,49.754 111.125,111.125" />
    </g>
    <path
       id="path28"
       style="fill:#ffffff;fill-opacity:0.78;fill-rule:evenodd;stroke:none;stroke-width:0.303003"
       d="m 107.64374,173.5226 -0.78841,0.78811 2.75794,-0.78811 -2.75794,-0.78721 z"
       mask="url(#mask1374)" />
    <g
       transform="matrix(-0.30300351,0,0,-0.30300351,74.941789,105.17986)"
       id="g30"
       mask="url(#mask1370)">
      <path
         id="path32"
         style="fill:none;stroke:#000000;stroke-width:0.693374;stroke-linecap:butt;stroke-linejoin:miter;stroke-miterlimit:4;stroke-dasharray:none;stroke-opacity:1"
         d="m -107.926,-225.551 2.602,-2.601 -9.102,2.601 9.102,2.598 z" />
    </g>
    <path
       id="path34"
       style="fill:#ffffff;fill-opacity:0.78;fill-rule:evenodd;stroke:none;stroke-width:0.303003"
       d="m 86.525344,137.88181 -0.788417,-0.78841 0.788417,2.75794 0.788112,-2.75794 z" />
    <g
       transform="matrix(0,-0.30300351,0.30300351,0,85.525129,105.17986)"
       id="g36">
      <path
         id="path38"
         style="fill:none;stroke:#000000;stroke-width:0.693374;stroke-linecap:butt;stroke-linejoin:miter;stroke-miterlimit:4;stroke-dasharray:none;stroke-opacity:1"
         d="m -107.926,3.301 2.602,-2.602 -9.102,2.602 9.102,2.601 z" />
    </g>
    <path
       id="path40"
       style="fill:#ffffff;fill-opacity:0.78;fill-rule:evenodd;stroke:none;stroke-width:0.303003"
       d="m 122.16619,106.18007 0.78811,-0.78841 -2.75763,0.78841 2.75763,0.78811 z" />
    <g
       id="g42"
       transform="matrix(0.30300351,0,0,0.30300351,85.525129,105.17986)">
      <path
         id="path44"
         style="fill:none;stroke:#000000;stroke-width:0.693374;stroke-linecap:butt;stroke-linejoin:miter;stroke-miterlimit:4;stroke-dasharray:none;stroke-opacity:1"
         d="m 120.926,3.301 2.601,-2.602 -9.101,2.602 9.101,2.601 z" />
    </g>
    <path
       id="path58"
       style="fill:#ffffff;fill-opacity:0.78;fill-rule:nonzero;stroke:none;stroke-width:0.303003"
       d="m 124.31348,139.85134 c 0,8.11837 -6.58184,14.70021 -14.70021,14.70021 -8.11837,0 -14.700523,-6.58184 -14.700523,-14.70021 0,-8.11838 6.582153,-14.70052 14.700523,-14.70052 8.11837,0 14.70021,6.58214 14.70021,14.70052"
       mask="url(#mask1464)"
       transform="translate(10.583334)" />
    <g
       id="g60"
       transform="matrix(0.30300351,0,0,0.30300351,85.525129,105.17986)"
       mask="url(#mask1460)"
       style="stroke-width:1.33002;stroke-miterlimit:4;stroke-dasharray:none">
      <path
         id="path62"
         style="fill:none;stroke:#000000;stroke-width:1.33002;stroke-linecap:butt;stroke-linejoin:round;stroke-miterlimit:4;stroke-dasharray:none;stroke-opacity:1"
         d="m 162.941,114.426 c 0,26.793 -21.722,48.515 -48.515,48.515 -26.793,0 -48.516,-21.722 -48.516,-48.515 0,-26.793 21.723,-48.516 48.516,-48.516 26.793,0 48.515,21.723 48.515,48.516" />
    </g>
    <path
       id="path64"
       style="fill:#ffffff;fill-opacity:0.78;fill-rule:evenodd;stroke:none;stroke-width:0.303003"
       d="m 111.58279,154.55155 0.78811,-0.78812 -2.75763,0.78812 2.75763,0.78841 z"
       mask="url(#mask1350)" />
    <g
       id="g66"
       transform="matrix(0.30300351,0,0,0.30300351,74.941789,105.17986)"
       mask="url(#mask1346)">
      <path
         id="path68"
         style="fill:none;stroke:#000000;stroke-width:0.693371;stroke-linecap:butt;stroke-linejoin:miter;stroke-miterlimit:4;stroke-dasharray:none;stroke-opacity:1"
         d="m 120.926,162.941 2.601,-2.601 -9.101,2.601 9.101,2.602 z" />
    </g>
    <path
       id="path70"
       style="fill:#ffffff;fill-opacity:0.78;fill-rule:evenodd;stroke:none;stroke-width:0.303003"
       d="m 105.49612,141.82086 0.78842,0.78811 -0.78842,-2.75763 -0.78691,2.75763 z" />
    <g
       transform="matrix(0,0.30300351,-0.30300351,0,85.525129,105.17986)"
       id="g72">
      <path
         id="path74"
         style="fill:none;stroke:#000000;stroke-width:0.693371;stroke-linecap:butt;stroke-linejoin:miter;stroke-miterlimit:4;stroke-dasharray:none;stroke-opacity:1"
         d="m 120.926,-65.91 2.601,-2.602 -9.101,2.602 9.101,2.597 z" />
    </g>
    <path
       id="path76"
       style="fill:#ffffff;fill-opacity:0.78;fill-rule:evenodd;stroke:none;stroke-width:0.303003"
       d="m 118.22714,125.15082 -0.78841,0.78841 2.75794,-0.78841 -2.75794,-0.7869 z" />
    <g
       transform="matrix(-0.30300351,0,0,-0.30300351,85.525129,105.17986)"
       id="g78">
      <path
         id="path80"
         style="fill:none;stroke:#000000;stroke-width:0.693371;stroke-linecap:butt;stroke-linejoin:miter;stroke-miterlimit:4;stroke-dasharray:none;stroke-opacity:1"
         d="m -107.926,-65.91 2.602,-2.602 -9.102,2.602 9.102,2.597 z" />
    </g>
    <path
       style="fill:none;stroke:#c40081;stroke-width:0.34117;stroke-linecap:butt;stroke-linejoin:miter;stroke-miterlimit:4;stroke-dasharray:none;stroke-opacity:1"
       d="m 103.62533,118.85325 c -3.18412,-0.74651 -6.482304,-1.32942 -9.759842,-0.92285 -2.405793,0.29843 -4.729285,1.3152 -6.514052,2.96944 -1.297152,1.20229 -2.370412,2.63582 -3.268318,4.15189 -0.882709,1.49041 -1.6123,3.23621 -1.308261,5.00192 0.292083,1.69627 1.437272,3.05615 2.49514,4.34395 1.284105,1.56321 2.442375,3.28922 2.958841,5.27635 0.475586,1.82984 0.317323,3.73556 0.232401,5.60018 -0.209486,4.59967 -0.73457,9.22939 -0.164279,13.81944 0.225014,1.81105 0.563171,3.65309 1.404138,5.28533 0.686561,1.33255 2.052506,2.15868 3.463254,2.54638 2.231472,0.61325 4.561578,0.58313 6.847538,0.82711 4.12344,0.4401 8.34173,0.77296 12.43444,-0.088 2.81505,-0.59219 5.56526,-1.72667 7.75603,-3.63419 2.82183,-2.45698 4.60506,-5.85222 5.96164,-9.28568 1.71682,-4.34521 2.62408,-8.97252 4.43011,-13.28009 0.82848,-1.97601 1.7179,-3.92817 2.43831,-5.94819 1.079,-3.02549 2.0069,-6.1789 2.00418,-9.41773 -0.002,-2.10937 -0.56653,-4.31822 -2.04683,-5.89085 -1.60929,-1.70967 -3.97552,-2.41647 -6.24379,-2.71038 -3.17622,-0.41156 -6.36181,0.0914 -9.50262,0.5453 -3.40114,0.4915 -6.80137,1.15711 -10.24687,1.16863 -1.13054,0.004 -2.27674,-0.0524 -3.37116,-0.35795 z"
       id="path1203"
       inkscape:path-effect="#path-effect1205"
       inkscape:original-d="m 103.62533,118.85325 c -6.897901,-1.64422 -13.232222,-2.00509 -17.688369,3.56509 -8.568576,10.71072 2.605261,10.32366 2.605261,19.88228 0,6.49962 -1.564636,15.7744 0.959837,21.66483 1.578808,3.68389 6.277659,3.31802 9.735459,3.70222 6.022012,0.66911 11.698992,1.09774 17.139892,-1.23407 10.05015,-4.30721 11.03491,-17.86975 14.67175,-26.05264 4.30339,-9.68263 8.56614,-23.03602 -6.99307,-23.03602 -5.62411,0 -15.73956,2.84865 -20.43076,1.50831 z"
       mask="url(#mask1456)"
       transform="translate(10.583334)" />
    <path
       style="fill:none;stroke:#2894f6;stroke-width:0.540999;stroke-linecap:butt;stroke-linejoin:miter;stroke-miterlimit:4;stroke-dasharray:none;stroke-opacity:1"
       d="m 100.5016,111.25539 c 2.71513,-1.42044 5.89591,-1.65996 8.89331,-1.32543 4.0925,0.45675 8.10228,1.8777 11.4931,4.23275 2.27843,1.58245 4.18149,3.77117 5.18377,6.36866 0.70993,1.83985 1.82201,3.49969 3.16165,4.94279 2.52589,2.72096 5.72584,4.8184 7.77654,7.97542 1.43143,2.20366 1.8603,4.89193 1.81221,7.47551 -0.0848,4.5561 -1.27529,9.07912 -3.32941,13.1347 -1.82401,3.60126 -4.42807,6.9578 -7.99305,8.97305 -2.55871,1.44642 -5.5989,1.82629 -8.50638,1.41914 -3.20726,-0.44913 -6.44738,-0.0702 -9.67089,-0.24383 -2.28739,-0.12317 -4.53538,-0.58985 -6.76885,-1.0848 -3.122969,-0.69207 -6.286017,-1.37002 -9.212939,-2.70129 -2.120695,-0.96457 -3.913674,-2.55751 -5.215573,-4.51135 -1.274317,-1.91245 -2.940757,-3.51379 -4.491235,-5.19656 -1.583614,-1.71873 -3.182284,-3.45794 -4.350239,-5.50229 -0.643625,-1.12658 -0.755259,-2.43866 -0.884635,-3.69956 -0.184832,-1.80137 -0.309085,-3.78373 0.689282,-5.3796 0.981779,-1.56935 2.628923,-2.527 4.180253,-3.44512 2.311982,-1.36829 4.71751,-2.59067 6.927651,-4.12097 1.636931,-1.13341 3.026608,-2.73742 3.55059,-4.69917 0.623787,-2.33541 0.176773,-4.84242 1.060344,-7.12943 0.988221,-2.55788 3.369948,-4.23302 5.694501,-5.48262 z"
       id="path1211"
       inkscape:path-effect="#path-effect1213"
       inkscape:original-d="m 100.5016,111.25539 c 6.68433,-3.56498 19.04505,-0.17117 23.75468,6.10834 2.15552,2.87402 1.62925,3.82062 3.78136,6.6901 3.16978,4.22637 8.54823,6.68071 10.18058,12.02278 2.86642,9.3807 -4.61034,30.66892 -19.00375,28.40865 -4.72706,-0.74231 -8.82212,0.6169 -16.30741,-1.28636 -7.588083,-1.61542 -12.11987,-2.97955 -14.731167,-7.20697 -2.131995,-3.45149 -8.860669,-8.67468 -9.489817,-12.44957 -1.498917,-8.9935 0.96631,-8.47814 10.567817,-14.3557 9.601507,-5.87757 -0.258335,-11.79472 11.247707,-17.93127 z"
       sodipodi:nodetypes="ssssscsscs"
       mask="url(#mask1452)"
       transform="translate(10.583334)" />
    <circle
       r="0.62081379"
       cy="132.60445"
       cx="94.617455"
       id="path2184-7"
       style="fill:#000000;fill-opacity:0.78;stroke:#000000;stroke-width:0.131642;stroke-linejoin:round;stroke-miterlimit:4;stroke-dasharray:none;stroke-opacity:1" />
    <circle
       r="0.68122607"
       cy="118.00847"
       cx="105.24467"
       id="path2184-72"
       style="fill:#000000;fill-opacity:0.78;stroke:#000000;stroke-width:0.144452;stroke-linejoin:round;stroke-miterlimit:4;stroke-dasharray:none;stroke-opacity:1" />
    <circle
       r="1.0134935"
       cy="164.52148"
       cx="120.16425"
       id="path2184-8"
       style="fill:#000000;fill-opacity:0.78;stroke:#000000;stroke-width:0.214908;stroke-linejoin:round;stroke-miterlimit:4;stroke-dasharray:none;stroke-opacity:1"
       mask="url(#mask1334)" />
    <circle
       r="1.0134935"
       cy="155.63904"
       cx="88.03627"
       id="path2184-10"
       style="fill:#000000;fill-opacity:0.78;stroke:#000000;stroke-width:0.214908;stroke-linejoin:round;stroke-miterlimit:4;stroke-dasharray:none;stroke-opacity:1"
       mask="url(#mask1330)" />
    <path
       style="fill:none;stroke:#000000;stroke-width:0.165;stroke-linecap:butt;stroke-linejoin:miter;stroke-miterlimit:4;stroke-dasharray:none;stroke-opacity:1;marker-end:url(#marker1910)"
       d="m 98.715465,121.00628 c 0.527376,0.6207 1.096788,1.21978 1.779375,1.67171 0.50013,0.33113 1.079,0.56299 1.68387,0.58937 0.51155,0.0223 1.02009,-0.10761 1.48126,-0.32338"
       id="path1484"
       inkscape:path-effect="#path-effect1486"
       inkscape:original-d="m 98.715465,121.00628 c 1.569425,1.85946 3.073555,2.8071 4.944505,1.9377"
       sodipodi:nodetypes="cc" />
    <path
       style="fill:none;stroke:#000000;stroke-width:0.165;stroke-linecap:butt;stroke-linejoin:miter;stroke-miterlimit:4;stroke-dasharray:none;stroke-opacity:1;marker-end:url(#Arrow1Mend)"
       d="m 94.372336,127.2537 c 0.486838,0.63443 1.185199,1.083 1.934213,1.34587 0.841617,0.29537 1.756661,0.38945 2.63866,0.25382 0.05722,-0.009 0.114294,-0.0186 0.171161,-0.0295"
       id="path1802"
       inkscape:path-effect="#path-effect1804"
       inkscape:original-d="m 94.372336,127.2537 c 1.073059,1.39548 3.136614,1.87749 4.744034,1.57021"
       sodipodi:nodetypes="cc" />
    <path
       sodipodi:nodetypes="cc"
       inkscape:original-d="m 118.18028,110.76999 c 2.02887,1.76579 3.15517,5.03711 3.34087,7.3499"
       inkscape:path-effect="#path-effect2040"
       id="path1484-3"
       d="m 118.18028,110.76999 c 0.92003,0.80578 1.60873,1.84547 2.12696,2.94518 0.57254,1.21496 0.97238,2.51497 1.15318,3.84628 0.0252,0.18556 0.0457,0.37177 0.0607,0.55844"
       style="fill:none;stroke:#000000;stroke-width:0.165;stroke-linecap:butt;stroke-linejoin:miter;stroke-miterlimit:4;stroke-dasharray:none;stroke-opacity:1;marker-start:url(#marker2256)" />
    <path
       sodipodi:nodetypes="cc"
       inkscape:original-d="m 107.58972,114.57858 c 3.33208,0.29847 3.20909,1.90141 3.40769,2.97337"
       inkscape:path-effect="#path-effect2038"
       id="path1802-3"
       d="m 107.58972,114.57858 c 0.65131,0.061 1.3093,0.17077 1.91024,0.43976 0.4114,0.18415 0.78684,0.46819 1.03258,0.85155 0.2284,0.35631 0.32298,0.77646 0.38751,1.18953 0.0256,0.1642 0.0472,0.32906 0.0774,0.49253"
       style="fill:none;stroke:#000000;stroke-width:0.165;stroke-linecap:butt;stroke-linejoin:miter;stroke-miterlimit:4;stroke-dasharray:none;stroke-opacity:1;marker-start:url(#Arrow1Mstart)" />
    <text
       xml:space="preserve"
       style="font-size:1.3337px;line-height:1.25;font-family:sans-serif;stroke-width:0.090934"
       x="93.028297"
       y="113.76782"
       id="text2332"><tspan
         sodipodi:role="line"
         id="tspan2330"
         x="93.028297"
         y="113.76782"
         style="stroke-width:0.090934">$C_{+,\epsilon}$</tspan></text>
    <text
       id="text2332-1"
       y="131.07381"
       x="111.12054"
       style="font-size:1.3337px;line-height:1.25;font-family:sans-serif;stroke-width:0.0909341"
       xml:space="preserve"><tspan
         style="stroke-width:0.0909341"
         y="131.07381"
         x="111.12054"
         id="tspan2330-9"
         sodipodi:role="line">$C_{-,\epsilon}$</tspan></text>
    <path
       sodipodi:nodetypes="cc"
       inkscape:original-d="m 90.085396,143.1107 c 1.188586,-1.75087 5.995923,-3.30226 7.583774,-3.57474"
       inkscape:path-effect="#path-effect2409"
       id="path1802-34"
       d="m 90.085396,143.1107 c 0.338952,-0.48586 0.819838,-0.85173 1.314724,-1.16556 0.977598,-0.61995 2.042134,-1.09116 3.126167,-1.48954 0.940484,-0.34563 1.895683,-0.66187 2.876973,-0.86838 0.08834,-0.0186 0.176938,-0.036 0.26591,-0.0513"
       style="fill:none;stroke:#000000;stroke-width:0.165;stroke-linecap:butt;stroke-linejoin:miter;stroke-miterlimit:4;stroke-dasharray:none;stroke-opacity:1;marker-start:url(#marker2467)" />
    <path
       style="fill:none;stroke:#000000;stroke-width:0.165;stroke-linecap:butt;stroke-linejoin:miter;stroke-miterlimit:4;stroke-dasharray:none;stroke-opacity:1;marker-start:url(#marker2467-7)"
       d="m 89.804028,138.31913 c 0.781705,-0.64915 1.672192,-1.16249 2.617425,-1.53385 1.185868,-0.4659 2.436252,-0.7382 3.682575,-0.98564"
       id="path1802-34-7"
       inkscape:path-effect="#path-effect2608"
       inkscape:original-d="m 89.804028,138.31913 c 1.742162,-1.43562 3.579782,-1.98542 6.3,-2.51949"
       sodipodi:nodetypes="cc" />
    <path
       id="path125"
       d="m 95.540831,132.55888 2.267857,-1.18117"
       style="fill:none;stroke:#000000;stroke-width:0.08;stroke-linecap:butt;stroke-linejoin:miter;stroke-miterlimit:4;stroke-dasharray:none;stroke-opacity:1;marker-end:url(#marker1006)" />
    <path
       style="fill:none;stroke:#000000;stroke-width:0.0799999;stroke-linecap:butt;stroke-linejoin:miter;stroke-miterlimit:4;stroke-dasharray:none;stroke-opacity:1;marker-end:url(#marker1006-8)"
       d="m 93.310023,132.39847 -2.267857,1.18117"
       id="path125-2" />
    <path
       sodipodi:nodetypes="cc"
       id="path125-2-5"
       d="m 93.890215,130.58839 1.658766,0.34662"
       style="fill:none;stroke:#000000;stroke-width:0.0799999;stroke-linecap:butt;stroke-linejoin:miter;stroke-miterlimit:4;stroke-dasharray:none;stroke-opacity:1;marker-end:url(#marker1006-8-0)" />
    <path
       style="fill:none;stroke:#000000;stroke-width:0.0799999;stroke-linecap:butt;stroke-linejoin:miter;stroke-miterlimit:4;stroke-dasharray:none;stroke-opacity:1;marker-end:url(#marker1006-8-0-6)"
       d="m 95.087058,134.09855 -1.792401,-0.22969"
       id="path125-2-5-0"
       sodipodi:nodetypes="cc" />
    <path
       style="fill:none;stroke:#000000;stroke-width:0.0799999;stroke-linecap:butt;stroke-linejoin:miter;stroke-miterlimit:4;stroke-dasharray:none;stroke-opacity:1;marker-end:url(#marker1006-8-0-9)"
       d="m 105.09037,114.90807 -0.34607,2.03839"
       id="path125-2-5-8"
       sodipodi:nodetypes="cc" />
    <path
       sodipodi:nodetypes="cc"
       id="path125-2-5-8-6"
       d="m 105.38603,121.16212 0.14562,-2.0885"
       style="fill:none;stroke:#000000;stroke-width:0.0799999;stroke-linecap:butt;stroke-linejoin:miter;stroke-miterlimit:4;stroke-dasharray:none;stroke-opacity:1;marker-end:url(#marker1006-8-0-9-8)" />
    <path
       style="fill:none;stroke:#000000;stroke-width:0.0799999;stroke-linecap:butt;stroke-linejoin:miter;stroke-miterlimit:4;stroke-dasharray:none;stroke-opacity:1;marker-end:url(#marker1006-8-0-9-8-2)"
       d="m 103.32394,118.65582 0.9252,1.00618"
       id="path125-2-5-8-6-1"
       sodipodi:nodetypes="cc" />
    <path
       sodipodi:nodetypes="cc"
       id="path125-2-5-8-1"
       d="m 106.99277,117.36208 -0.84216,-1.10354"
       style="fill:none;stroke:#000000;stroke-width:0.0799999;stroke-linecap:butt;stroke-linejoin:miter;stroke-miterlimit:4;stroke-dasharray:none;stroke-opacity:1;marker-end:url(#marker1006-8-0-9-9)" />
  </g>
</svg>
