<?xml version="1.0" encoding="UTF-8" standalone="no"?>
<svg
   xmlns:dc="http://purl.org/dc/elements/1.1/"
   xmlns:cc="http://creativecommons.org/ns#"
   xmlns:rdf="http://www.w3.org/1999/02/22-rdf-syntax-ns#"
   xmlns:svg="http://www.w3.org/2000/svg"
   xmlns="http://www.w3.org/2000/svg"
   xmlns:sodipodi="http://sodipodi.sourceforge.net/DTD/sodipodi-0.dtd"
   xmlns:inkscape="http://www.inkscape.org/namespaces/inkscape"
   width="300mm"
   height="125mm"
   viewBox="0 0 300.00002 125"
   version="1.1"
   id="svg8"
   inkscape:version="1.0 (4035a4fb49, 2020-05-01)"
   sodipodi:docname="22_koch.svg">
  <defs
     id="defs2">
    <rect
       x="74.568199"
       y="108.24416"
       width="16.036173"
       height="11.49259"
       id="rect1149" />
    <marker
       inkscape:stockid="Arrow1Lstart"
       orient="auto"
       refY="0"
       refX="0"
       id="Arrow1Lstart"
       style="overflow:visible"
       inkscape:isstock="true">
      <path
         id="path841"
         d="M 0,0 5,-5 -12.5,0 5,5 Z"
         style="fill:#000000;fill-opacity:1;fill-rule:evenodd;stroke:#000000;stroke-width:1pt;stroke-opacity:1"
         transform="matrix(0.8,0,0,0.8,10,0)" />
    </marker>
    <marker
       inkscape:stockid="Arrow1Lend"
       orient="auto"
       refY="0"
       refX="0"
       id="Arrow1Lend"
       style="overflow:visible"
       inkscape:isstock="true">
      <path
         id="path844"
         d="M 0,0 5,-5 -12.5,0 5,5 Z"
         style="fill:#000000;fill-opacity:1;fill-rule:evenodd;stroke:#000000;stroke-width:1pt;stroke-opacity:1"
         transform="matrix(-0.8,0,0,-0.8,-10,0)" />
    </marker>
    <marker
       inkscape:isstock="true"
       style="overflow:visible"
       id="Arrow1Lstart-7"
       refX="0"
       refY="0"
       orient="auto"
       inkscape:stockid="Arrow1Lstart">
      <path
         transform="matrix(0.8,0,0,0.8,10,0)"
         style="fill:#000000;fill-opacity:1;fill-rule:evenodd;stroke:#000000;stroke-width:1pt;stroke-opacity:1"
         d="M 0,0 5,-5 -12.5,0 5,5 Z"
         id="path841-6" />
    </marker>
    <marker
       inkscape:isstock="true"
       style="overflow:visible"
       id="Arrow1Lend-3"
       refX="0"
       refY="0"
       orient="auto"
       inkscape:stockid="Arrow1Lend">
      <path
         transform="matrix(-0.8,0,0,-0.8,-10,0)"
         style="fill:#000000;fill-opacity:1;fill-rule:evenodd;stroke:#000000;stroke-width:1pt;stroke-opacity:1"
         d="M 0,0 5,-5 -12.5,0 5,5 Z"
         id="path844-9" />
    </marker>
    <marker
       inkscape:isstock="true"
       style="overflow:visible"
       id="Arrow1Lstart-5"
       refX="0"
       refY="0"
       orient="auto"
       inkscape:stockid="Arrow1Lstart">
      <path
         transform="matrix(0.8,0,0,0.8,10,0)"
         style="fill:#000000;fill-opacity:1;fill-rule:evenodd;stroke:#000000;stroke-width:1pt;stroke-opacity:1"
         d="M 0,0 5,-5 -12.5,0 5,5 Z"
         id="path841-7" />
    </marker>
    <marker
       inkscape:isstock="true"
       style="overflow:visible"
       id="Arrow1Lend-39"
       refX="0"
       refY="0"
       orient="auto"
       inkscape:stockid="Arrow1Lend">
      <path
         transform="matrix(-0.8,0,0,-0.8,-10,0)"
         style="fill:#000000;fill-opacity:1;fill-rule:evenodd;stroke:#000000;stroke-width:1pt;stroke-opacity:1"
         d="M 0,0 5,-5 -12.5,0 5,5 Z"
         id="path844-6" />
    </marker>
  </defs>
  <sodipodi:namedview
     id="base"
     pagecolor="#ffffff"
     bordercolor="#666666"
     borderopacity="1.0"
     inkscape:pageopacity="0.0"
     inkscape:pageshadow="2"
     inkscape:zoom="1.4"
     inkscape:cx="524.63317"
     inkscape:cy="261.42836"
     inkscape:document-units="mm"
     inkscape:current-layer="layer1"
     inkscape:document-rotation="0"
     showgrid="false"
     inkscape:window-width="1920"
     inkscape:window-height="1046"
     inkscape:window-x="-11"
     inkscape:window-y="-11"
     inkscape:window-maximized="1" />
  <metadata
     id="metadata5">
    <rdf:RDF>
      <cc:Work
         rdf:about="">
        <dc:format>image/svg+xml</dc:format>
        <dc:type
           rdf:resource="http://purl.org/dc/dcmitype/StillImage" />
        <dc:title></dc:title>
      </cc:Work>
    </rdf:RDF>
  </metadata>
  <g
     inkscape:label="Livello 1"
     inkscape:groupmode="layer"
     id="layer1"
     transform="translate(-47.468437,-2.4132182)">
    <path
       d="m 284.45453,5.838332 -5.95364,10.312032 -11.1957,0.0057 5.59966,9.687264 -5.79087,10.029879 -11.54451,-0.02481 -5.79035,-9.89552 -5.62239,9.871231 -11.72435,-0.02532 5.89421,10.260356 -5.60844,9.84591 11.22774,-0.06511 5.80584,10.106361 -5.74693,9.953914 -11.48354,0.0057 5.74332,9.936345 -5.8968,10.213846 h 11.80083 l 5.60328,9.69347 5.58984,-9.69347 h 11.68766 l 6.01358,10.46809 -5.74797,9.96684 11.47062,-0.006 5.53972,9.64282 5.59862,-9.6485 11.86181,-0.006 -5.91799,-10.23814 5.9061,-10.17922 h 11.49336 l 5.74693,9.94203 5.7335,-9.94203 h 11.79411 l -5.90041,-10.220047 5.59294,-9.699152 -11.1895,0.0057 -5.84357,-10.121863 5.81825,-10.028327 11.70316,-0.06821 -5.85649,-10.008174 5.74022,-9.892935 -11.544,-0.0248 -5.749,-9.825241 -5.58209,9.800952 -11.89281,-0.02584 -5.74642,-9.953397 5.68337,-9.856246 -11.37088,0.0057 z"
       inkscape:transform-center-y="-15.036287"
       inkscape:transform-center-x="1.2660578e-06"
       style="fill:#ffffff;stroke:#000000;stroke-width:0.499999;stroke-linejoin:round;stroke-opacity:1"
       id="path14" />
    <path
       sodipodi:nodetypes="cc"
       style="fill:none;stroke:#000000;stroke-width:0.482993;stroke-linecap:butt;stroke-linejoin:miter;stroke-miterlimit:4;stroke-dasharray:none;stroke-opacity:1;marker-start:url(#Arrow1Lstart);marker-end:url(#Arrow1Lend)"
       d="m 66.737956,98.701787 27.184543,1.5e-4"
       id="path839" />
    <text
       xml:space="preserve"
       id="text1147"
       style="font-size:3.88056px;line-height:1.25;font-family:sans-serif;white-space:pre;shape-inside:url(#rect1149);" />
    <path
       id="path14-5"
       style="fill:#ffffff;stroke:#000000;stroke-width:0.499999;stroke-linejoin:round;stroke-opacity:1"
       inkscape:transform-center-x="1.2660578e-06"
       inkscape:transform-center-y="-15.036287"
       d="M 114.56457,3.576053 97.223948,33.610919 62.542342,33.536505 79.861699,63.684019 62.477746,93.793809 h 34.681606 l 17.276028,30.072181 17.44865,-30.072181 h 34.76803 l -17.34058,-30.035376 17.40517,-29.997651 -34.76803,-0.07493 z" />
    <path
       id="path839-7"
       d="m 234.22728,98.210422 8.08924,1.4e-4"
       style="fill:none;stroke:#000000;stroke-width:0.145;stroke-linecap:butt;stroke-linejoin:miter;stroke-miterlimit:4;stroke-dasharray:none;stroke-opacity:1;marker-start:url(#Arrow1Lstart-5);marker-end:url(#Arrow1Lend-39)"
       sodipodi:nodetypes="cc" />
    <text
       id="text1145"
       y="114.67215"
       x="231.73183"
       style="font-size:3.88056px;line-height:1.25;font-family:sans-serif;stroke-width:0.264583"
       xml:space="preserve"><tspan
         style="stroke-width:0.264583"
         y="114.67215"
         x="231.73183"
         id="tspan1143"
         sodipodi:role="line">$l/9$</tspan></text>
    <text
       xml:space="preserve"
       style="font-size:3.88056px;line-height:1.25;font-family:sans-serif;stroke-width:0.264583"
       x="71.060654"
       y="112.23247"
       id="text1145-6"><tspan
         sodipodi:role="line"
         id="tspan1143-2"
         x="71.060654"
         y="112.23247"
         style="stroke-width:0.264583">$l/3$</tspan></text>
  </g>
</svg>
